<svg width="50" height="50" viewBox="0 0 50 50" fill="none" xmlns="http://www.w3.org/2000/svg">
<path d="M34.0832 29.1667C34.2498 27.7917 34.3748 26.4167 34.3748 25.0001C34.3748 23.5834 34.2498 22.2084 34.0832 20.8334H41.1248C41.4582 22.1667 41.6665 23.5626 41.6665 25.0001C41.6665 26.4376 41.4582 27.8334 41.1248 29.1667H34.0832ZM30.3957 40.7501C31.6457 38.4376 32.604 35.9376 33.2707 33.3334H39.4165C37.3981 36.809 34.1959 39.4417 30.3957 40.7501ZM29.8748 29.1667H20.1248C19.9165 27.7917 19.7915 26.4167 19.7915 25.0001C19.7915 23.5834 19.9165 22.1876 20.1248 20.8334H29.8748C30.0623 22.1876 30.2082 23.5834 30.2082 25.0001C30.2082 26.4167 30.0623 27.7917 29.8748 29.1667ZM24.9998 41.5834C23.2707 39.0834 21.8748 36.3126 21.0207 33.3334H28.979C28.1248 36.3126 26.729 39.0834 24.9998 41.5834ZM16.6665 16.6667H10.5832C12.5808 13.1818 15.7807 10.5448 19.5832 9.25008C18.3332 11.5626 17.3957 14.0626 16.6665 16.6667ZM10.5832 33.3334H16.6665C17.3957 35.9376 18.3332 38.4376 19.5832 40.7501C15.7886 39.4411 12.5933 36.8078 10.5832 33.3334ZM8.87484 29.1667C8.5415 27.8334 8.33317 26.4376 8.33317 25.0001C8.33317 23.5626 8.5415 22.1667 8.87484 20.8334H15.9165C15.7498 22.2084 15.6248 23.5834 15.6248 25.0001C15.6248 26.4167 15.7498 27.7917 15.9165 29.1667H8.87484ZM24.9998 8.39592C26.729 10.8959 28.1248 13.6876 28.979 16.6667H21.0207C21.8748 13.6876 23.2707 10.8959 24.9998 8.39592ZM39.4165 16.6667H33.2707C32.6186 14.0865 31.6531 11.5957 30.3957 9.25008C34.229 10.5626 37.4165 13.2084 39.4165 16.6667ZM24.9998 4.16675C13.479 4.16675 4.1665 13.5417 4.1665 25.0001C4.1665 30.5254 6.36144 35.8245 10.2684 39.7315C12.203 41.666 14.4996 43.2006 17.0273 44.2476C19.5549 45.2945 22.264 45.8334 24.9998 45.8334C30.5252 45.8334 35.8242 43.6385 39.7312 39.7315C43.6382 35.8245 45.8332 30.5254 45.8332 25.0001C45.8332 22.2642 45.2943 19.5551 44.2473 17.0275C43.2004 14.4999 41.6658 12.2032 39.7312 10.2687C37.7967 8.33414 35.5 6.79956 32.9724 5.75259C30.4448 4.70562 27.7357 4.16675 24.9998 4.16675Z" fill="#377DFF"/>
</svg>
