<svg width="21" height="20" viewBox="0 0 21 20" fill="none" xmlns="http://www.w3.org/2000/svg">
<path d="M4.48587 5.9975C5.49287 5.9975 6.3092 5.18116 6.3092 4.17416C6.3092 3.16716 5.49287 2.35083 4.48587 2.35083C3.47887 2.35083 2.66254 3.16716 2.66254 4.17416C2.66254 5.18116 3.47887 5.9975 4.48587 5.9975Z" fill="white"/>
<path d="M8.0309 7.37915V17.495H11.1717V12.4925C11.1717 11.1725 11.4201 9.89415 13.0567 9.89415C14.6709 9.89415 14.6909 11.4033 14.6909 12.5758V17.4958H17.8334V11.9483C17.8334 9.22332 17.2467 7.12915 14.0617 7.12915C12.5326 7.12915 11.5076 7.96832 11.0884 8.76248H11.0459V7.37915H8.0309ZM2.91257 7.37915H6.0584V17.495H2.91257V7.37915Z" fill="white"/>
</svg>
