<svg width="167" height="20" viewBox="0 0 167 20" fill="none" xmlns="http://www.w3.org/2000/svg">
<path d="M11.1642 17.4975V10.6675H13.4683L13.8108 7.99335H11.1642V6.29002C11.1642 5.51835 11.3792 4.99002 12.4867 4.99002H13.89V2.60585C13.2072 2.53268 12.5209 2.49735 11.8342 2.50002C9.7975 2.50002 8.39917 3.74335 8.39917 6.02585V7.98835H6.11V10.6625H8.40417V17.4975H11.1642Z" fill="white"/>
<path d="M55.3661 3.85196L52.7254 16.3051C52.5261 17.1838 52.0067 17.4026 51.2686 16.9888L47.2448 14.0238L45.3036 15.8913C45.0886 16.1063 44.9092 16.2857 44.4948 16.2857L44.7842 12.1882L52.2411 5.45008C52.5654 5.16133 52.1704 5.00071 51.7373 5.29008L42.5186 11.0951L38.5498 9.85258C37.6867 9.58321 37.6711 8.98946 38.7298 8.57508L54.2529 2.59446C54.9717 2.32508 55.6004 2.75446 55.3661 3.85258V3.85196Z" fill="white"/>
<path d="M77.4858 5.9975C78.4928 5.9975 79.3092 5.18116 79.3092 4.17416C79.3092 3.16716 78.4928 2.35083 77.4858 2.35083C76.4788 2.35083 75.6625 3.16716 75.6625 4.17416C75.6625 5.18116 76.4788 5.9975 77.4858 5.9975Z" fill="white"/>
<path d="M81.0309 7.37915V17.495H84.1717V12.4925C84.1717 11.1725 84.4201 9.89415 86.0567 9.89415C87.6709 9.89415 87.6909 11.4033 87.6909 12.5758V17.4958H90.8334V11.9483C90.8334 9.22332 90.2467 7.12915 87.0617 7.12915C85.5326 7.12915 84.5076 7.96832 84.0884 8.76248H84.0459V7.37915H81.0309ZM75.9126 7.37915H79.0584V17.495H75.9126V7.37915Z" fill="white"/>
<path d="M122.7 10C122.7 8.5 121.5 7.3 120 7.3C118.5 7.3 117.3 8.5 117.3 10C117.3 11.5 118.5 12.7 120 12.7C121.5 12.7 122.7 11.5 122.7 10ZM124.1 10C124.1 12.3 122.3 14.1 120 14.1C117.7 14.1 115.9 12.3 115.9 10C115.9 7.7 117.7 5.9 120 5.9C122.3 5.9 124.1 7.7 124.1 10ZM125.2 5.7C125.2 6.3 124.8 6.7 124.2 6.7C123.6 6.7 123.2 6.3 123.2 5.7C123.2 5.1 123.6 4.7 124.2 4.7C124.8 4.7 125.2 5.2 125.2 5.7ZM120 3.4C118.8 3.4 116.3 3.3 115.3 3.7C114.6 4 114 4.6 113.8 5.3C113.4 6.3 113.5 8.8 113.5 10C113.5 11.2 113.4 13.7 113.8 14.7C114 15.4 114.6 16 115.3 16.2C116.3 16.6 118.9 16.5 120 16.5C121.1 16.5 123.7 16.6 124.7 16.2C125.4 15.9 125.9 15.4 126.2 14.7C126.6 13.6 126.5 11.1 126.5 10C126.5 8.9 126.6 6.3 126.2 5.3C126 4.6 125.4 4 124.7 3.8C123.7 3.3 121.2 3.4 120 3.4ZM128 10V13.3C128 14.5 127.6 15.7 126.7 16.7C125.8 17.6 124.6 18 123.3 18H116.7C115.5 18 114.3 17.6 113.3 16.7C112.5 15.8 112 14.6 112 13.3V10V6.7C112 5.4 112.5 4.2 113.3 3.3C114.3 2.5 115.5 2 116.7 2H123.3C124.5 2 125.7 2.4 126.7 3.3C127.5 4.2 128 5.4 128 6.7V10Z" fill="white"/>
<g clip-path="url(#clip0)">
<path d="M156.667 2.30005C146.839 2.30005 146.667 3.17405 146.667 10C146.667 16.826 146.839 17.7 156.667 17.7C166.495 17.7 166.667 16.826 166.667 10C166.667 3.17405 166.495 2.30005 156.667 2.30005ZM159.872 10.334L155.382 12.43C154.989 12.612 154.667 12.408 154.667 11.974V8.02605C154.667 7.59305 154.989 7.38805 155.382 7.57005L159.872 9.66605C160.265 9.85005 160.265 10.15 159.872 10.334Z" fill="white"/>
</g>
<defs>
<clipPath id="clip0">
<rect width="20" height="20" fill="white" transform="translate(146.667)"/>
</clipPath>
</defs>
</svg>
